<svg viewBox="0 0 137 15" fill="none" xmlns="http://www.w3.org/2000/svg">
<g clip-path="url(#clip0_2_27)">
<path d="M7.22955 5.12786C6.8843 5.38911 6.53667 5.64736 6.19455 5.91236C5.65092 6.33311 5.68642 6.65348 6.27292 7.02523C6.9383 7.44711 7.5983 7.88036 8.23505 8.34361C8.96017 8.87098 8.99567 9.38435 8.39392 10.0665C8.25167 10.2277 8.1098 10.4226 7.9243 10.5085C6.16655 11.3222 4.69005 12.6905 2.74817 13.139C2.20755 13.2639 1.66967 13.4055 1.12355 13.4995C0.568549 13.5952 0.203172 13.293 0.195172 12.7241C0.169672 10.8675 0.162923 9.01061 0.151798 7.15386C0.142798 5.60436 0.148047 4.05461 0.124547 2.50548C0.117422 2.02648 -0.0314526 1.54348 0.00604744 1.07173C0.0577974 0.418359 0.381298 0.259854 1.00642 0.416479C3.01455 0.919604 4.87167 1.7651 6.63192 2.84273C6.9838 3.05835 7.39055 3.1906 7.72342 3.42898C8.3263 3.8611 8.32517 4.2021 7.77555 4.6831C7.59917 4.83735 7.4068 4.97336 7.2218 5.11761C7.22442 5.12098 7.22692 5.12448 7.22955 5.12786ZM5.40155 8.74886C5.32142 8.70398 5.18955 8.59998 5.03992 8.55173C4.47655 8.36973 3.91167 8.18961 3.33892 8.04061C2.84967 7.91348 2.70142 8.05748 2.6648 8.57736C2.62955 9.07673 2.54955 9.5731 2.52967 10.0727C2.5208 10.3 2.5373 10.6345 2.67517 10.731C2.8108 10.8261 3.1413 10.7342 3.3393 10.6326C3.9868 10.3005 4.60655 9.91473 5.24942 9.57311C5.61692 9.37761 5.71055 9.08586 5.40155 8.74886ZM4.39067 5.00611C4.39755 5.01373 4.4043 5.02136 4.41105 5.02911C4.47842 4.96948 4.5453 4.90986 4.6128 4.85073C5.1248 4.40173 5.06817 4.20061 4.4483 3.90661C4.03242 3.70948 3.67405 3.39485 3.27192 3.16385C3.07455 3.05048 2.73705 2.88173 2.63817 2.95986C2.44967 3.10911 2.29592 3.41561 2.29217 3.65948C2.28642 4.02673 2.41792 4.39685 2.49842 4.7641C2.5648 5.0671 2.3778 5.53848 2.89692 5.56561C3.24317 5.58386 3.60705 5.4916 3.94292 5.38523C4.11492 5.33085 4.24292 5.13686 4.39067 5.00611Z" fill="#232744"/>
<path d="M64.4277 6.56748C64.1168 7.10648 63.8823 7.65898 63.5221 8.11123C62.1427 9.84436 60.7216 11.5444 59.3187 13.2589C58.6706 14.0509 58.0494 13.9976 57.3658 13.2304C56.5052 12.2645 55.5282 11.4029 54.6548 10.4471C53.7704 9.47923 52.9443 8.45786 52.108 7.44711C51.8642 7.15236 52.036 6.87723 52.2342 6.61848C53.3302 5.18848 54.4048 3.74173 55.5209 2.32761C56.0849 1.61323 56.7209 0.955485 57.3243 0.272235C57.6618 -0.110515 57.9815 -0.070518 58.3353 0.272607C59.6009 1.50148 60.8795 2.71698 62.151 3.94011C62.7608 4.52661 63.381 5.1036 63.9628 5.71698C64.1575 5.92235 64.2472 6.22761 64.4277 6.56748ZM61.5184 6.81836C61.4259 6.67161 61.3448 6.51823 61.2402 6.38298C61.0972 6.19861 60.9379 6.02673 60.7828 5.85198C60.0185 4.99073 59.2614 4.12298 58.485 3.27286C58.1977 2.95823 57.8833 2.9841 57.6137 3.3266C56.7899 4.37285 55.9737 5.42485 55.1404 6.46335C54.8484 6.82723 54.8003 7.15698 55.1209 7.52461C55.9742 8.50298 56.8134 9.49361 57.6713 10.468C58.0617 10.9112 58.548 10.9035 58.9142 10.4349C59.7238 9.39836 60.5133 8.34623 61.3023 7.29398C61.3957 7.16936 61.4358 7.00486 61.5184 6.81836Z" fill="#232744"/>
<path d="M21.9945 13.1755C21.9417 12.9745 21.8202 12.709 21.8097 12.4389C21.7705 11.4371 21.7698 10.434 21.7509 9.43136C21.7437 9.03723 21.733 8.6431 21.7122 8.24973C21.6074 6.27073 21.4978 4.29186 21.3934 2.31286C21.3819 2.09723 21.3817 1.8801 21.3939 1.6646C21.4162 1.27135 21.6185 1.08573 22.0267 1.10285C22.4035 1.11835 22.7828 1.10898 23.1592 1.08435C23.5725 1.05735 23.7589 1.2331 23.768 1.64398C23.82 4.05598 23.872 6.46773 23.9389 8.87923C23.9553 9.47323 23.9932 10.0711 24.0924 10.6551C24.1268 10.8565 24.3417 11.1004 24.5358 11.1889C25.4897 11.6229 26.5058 11.5686 27.5128 11.4502C27.9989 11.393 28.1444 11.0905 28.107 10.3579C28.0658 9.5481 27.9868 8.73948 27.9703 7.92948C27.94 6.4176 27.9498 4.90511 27.9285 3.39311C27.922 2.94386 27.8634 2.4956 27.8375 2.04635C27.823 1.79635 27.7862 1.53761 27.8318 1.29648C27.8943 0.965607 28.0863 0.568978 28.4647 0.741978C29.0215 0.996603 29.9369 0.296607 30.1567 1.30198C30.2968 1.94336 30.2583 2.62773 30.266 3.29311C30.2877 5.14798 30.2983 7.00298 30.2992 8.85798C30.2994 9.50648 30.2502 10.1549 30.2393 10.8036C30.2322 11.2355 30.2242 11.671 30.2665 12.0999C30.3642 13.0929 29.6959 13.6457 28.7024 13.5407C27.7778 13.4431 26.833 13.555 25.8992 13.5204C24.7498 13.4779 23.6024 13.3807 22.4547 13.3014C22.3494 13.2941 22.2472 13.2461 21.9945 13.1755Z" fill="#232744"/>
<path d="M68.1093 1.42861C68.093 1.24936 68.0684 1.07023 68.0624 0.890483C68.0509 0.541608 68.219 0.381855 68.5748 0.334355C69.4647 0.21523 70.1502 0.632732 70.793 1.14598C72.9195 2.84373 75.0345 4.55586 77.1578 6.25748C77.5029 6.53423 77.5139 6.80461 77.2197 7.12311C75.834 8.62161 74.3325 9.98886 72.6513 11.1502C71.5138 11.936 70.3638 12.7034 69.2207 13.481C68.7513 13.8001 68.522 13.718 68.2563 13.1989C67.9733 12.6461 67.933 12.0846 67.9734 11.471C68.0335 10.558 67.9778 9.63811 67.9958 8.72148C68.0373 6.59598 68.0942 4.47085 68.143 2.3456C68.1499 2.03973 68.1465 1.73348 68.1479 1.42748C68.135 1.42786 68.1222 1.42823 68.1093 1.42861ZM70.3259 9.69123C70.1988 10.036 70.3634 10.1737 70.6767 10.0152C70.8968 9.90373 71.0897 9.7316 71.281 9.5706C72.1613 8.82898 73.0303 8.07335 73.9175 7.3401C74.2863 7.03523 74.2649 6.66198 73.8387 6.38385C73.4642 6.13948 73.0985 5.88073 72.7359 5.61873C72.1809 5.21748 71.6443 4.78898 71.0725 4.4136C70.9028 4.30223 70.6109 4.25435 70.4333 4.32473C70.3284 4.36623 70.3015 4.69736 70.3047 4.89698C70.3097 5.21998 70.4012 5.54236 70.3982 5.86448C70.3863 7.14011 70.3519 8.41548 70.3259 9.69123Z" fill="#232744"/>
<path d="M41.8687 7.49935C41.7379 8.01535 41.471 8.27573 41.0063 8.26898C40.198 8.2576 39.3902 8.22273 38.5821 8.21573C38.4207 8.21423 38.2587 8.2926 38.0969 8.3341C38.1567 8.49422 38.1713 8.7051 38.2842 8.8056C38.7274 9.20023 39.1894 9.57673 39.667 9.9296C40.4782 10.5281 41.3266 11.0781 42.1172 11.702C42.4168 11.9385 42.8649 12.4409 42.7864 12.6159C42.5651 13.109 42.1485 13.5497 41.7147 13.8908C41.5738 14.0015 41.0821 13.8169 40.8513 13.6379C39.4592 12.5576 38.1018 11.4328 36.7203 10.3388C36.1724 9.90485 35.5738 9.53422 35.0323 9.09272C34.6308 8.76535 34.2607 8.39022 33.9298 7.99197C33.8429 7.88772 33.8862 7.57135 33.9841 7.43273C35.7429 4.9396 37.8032 2.69847 39.8814 0.474974C39.9883 0.360849 40.2858 0.297603 40.4224 0.362603C40.8413 0.561603 41.2314 0.825478 41.6212 1.0816C42.0875 1.38823 42.0778 1.56147 41.6874 1.94635C40.7787 2.84222 39.8913 3.7596 38.9897 4.66247C38.7233 4.9291 38.4202 5.16048 38.1688 5.43948C38.0394 5.5831 37.9868 5.79598 37.8997 5.97723C38.1047 6.05773 38.318 6.2231 38.5134 6.20372C39.3728 6.11847 40.227 5.97985 41.0832 5.86085C41.8872 5.7491 42.0905 5.95623 41.9784 6.77723C41.9418 7.04523 41.8973 7.31198 41.8687 7.49935Z" fill="#232744"/>
<path d="M116.92 8.41874C116.417 7.87761 115.931 7.32036 115.407 6.80111C115.043 6.44036 115.046 6.10136 115.39 5.77424C116.225 4.97974 117.069 4.19424 117.928 3.42511C119.068 2.40311 120.241 1.41624 121.369 0.380113C121.733 0.0452381 122.057 -0.0540157 122.473 0.210734C122.792 0.414109 123.123 0.604113 123.417 0.839488C123.883 1.21086 123.862 1.46274 123.4 1.82211C122.589 2.45286 121.771 3.07674 120.979 3.73074C120.452 4.16636 119.956 4.64123 119.464 5.11773C119.349 5.22886 119.311 5.41799 119.238 5.57124C119.399 5.61549 119.56 5.69961 119.72 5.69748C120.782 5.68311 121.845 5.65786 122.907 5.62011C123.338 5.60473 123.545 5.82161 123.593 6.21561C123.644 6.62686 123.682 7.04036 123.704 7.45411C123.723 7.81199 123.549 7.97936 123.173 7.95699C122.079 7.89236 120.985 7.82948 119.89 7.79823C119.662 7.79161 119.43 7.92424 119.2 7.99249C119.311 8.21924 119.376 8.48636 119.538 8.66623C120.527 9.76398 121.548 10.8335 122.538 11.9302C123.01 12.4539 122.977 12.6086 122.426 13.07C122.288 13.1861 122.153 13.3064 122.009 13.4152C121.507 13.7949 121.275 13.78 120.87 13.2887C120.066 12.3164 119.289 11.3232 118.482 10.3539C117.953 9.71786 117.391 9.10874 116.844 8.48774C116.869 8.46474 116.894 8.44186 116.92 8.41874Z" fill="#232744"/>
<path d="M81.9872 0.363351C82.0936 0.433476 82.3519 0.509728 82.4366 0.674728C83.1839 2.1331 83.8944 3.60998 84.6328 5.07285C84.74 5.28535 84.9364 5.45298 85.0915 5.64148C85.2764 5.4526 85.5295 5.2956 85.6343 5.06973C86.1187 4.02573 86.5613 2.96261 87.0198 1.90661C87.1988 1.49436 87.3898 1.08685 87.5572 0.669729C87.6844 0.352604 87.8868 0.212227 88.2302 0.289602C88.6694 0.388852 89.1102 0.482227 89.5509 0.574227C89.9 0.647602 89.9267 0.865106 89.8068 1.14336C89.3349 2.23711 88.8659 3.33198 88.3851 4.42173C87.8102 5.72473 87.1084 6.98623 86.6823 8.33535C86.3765 9.30285 86.4106 10.3832 86.3382 11.4165C86.3057 11.88 86.3958 12.3511 86.4086 12.8194C86.4199 13.2324 86.1912 13.4075 85.7878 13.3677C85.734 13.3625 85.6804 13.3545 85.6265 13.3479C85.1829 13.2929 84.602 13.386 84.3359 13.1392C84.0889 12.9106 84.1434 12.3201 84.1273 11.8865C84.0967 11.0586 84.1369 10.2277 84.0929 9.40085C84.0741 9.04398 83.9655 8.67285 83.8149 8.3461C83.567 7.80798 83.2372 7.3081 82.968 6.77898C82.3245 5.5136 81.6969 4.2406 81.0616 2.97135C80.8198 2.48823 80.5528 2.01586 80.3463 1.51836C80.2932 1.39011 80.3739 1.08948 80.4814 1.03123C80.9229 0.792353 81.3984 0.616601 81.9872 0.363351Z" fill="#232744"/>
<path d="M132.206 5.85998C132.606 4.89985 133.043 3.94898 133.398 2.96848C133.649 2.27686 133.789 1.54536 133.978 0.831482C134.069 0.487482 134.312 0.435983 134.61 0.509858C135.08 0.625983 135.549 0.747483 136.017 0.872608C136.576 1.02211 136.711 1.32036 136.472 1.83911C135.876 3.13023 135.295 4.42823 134.689 5.71423C134.368 6.39598 133.959 7.03923 133.673 7.73411C133.211 8.85373 133.174 10.0417 133.237 11.2391C133.269 11.8494 133.239 12.4627 133.237 13.0747C133.237 13.0927 133.236 13.1109 133.234 13.1286C133.165 13.5864 132.349 13.8412 131.397 13.707C130.924 13.6402 131.008 13.3141 131.001 12.9746C130.971 11.6231 130.921 10.2716 130.839 8.92211C130.823 8.65111 130.675 8.36599 130.523 8.12849C129.27 6.16549 128.394 4.00786 127.305 1.96048C127.087 1.55048 127.189 1.27086 127.625 1.11386C128.016 0.973605 128.404 0.825607 128.798 0.696357C129.121 0.590482 129.344 0.692355 129.488 1.02323C129.897 1.95973 130.335 2.88348 130.745 3.81973C131.01 4.42548 131.238 5.04736 131.5 5.65461C131.565 5.80536 131.675 5.96686 131.81 6.04473C131.875 6.08261 132.046 5.93948 132.206 5.85998Z" fill="#232744"/>
<path d="M96.3233 11.2076C96.8037 10.8286 97.2836 10.4487 97.7652 10.0712C98.0834 9.82186 98.0889 9.55711 97.7729 9.31786C96.6535 8.46936 95.5174 7.64248 94.4052 6.78498C93.78 6.30273 93.1709 5.79573 92.5892 5.26248C92.2264 4.92998 92.3138 4.40211 92.8159 4.00836C94.2637 2.87373 95.6639 1.69186 96.8947 0.317482C97.1983 -0.0216429 97.5422 -0.0207644 97.8738 0.333486C98.082 0.555986 98.3196 0.752234 98.5548 0.947609C99.0919 1.39298 99.0873 1.82273 98.5009 2.26611C97.9402 2.69048 97.3528 3.07936 96.7887 3.49923C96.4708 3.73573 96.1726 3.99923 95.8726 4.25886C95.6109 4.48536 95.6102 4.67786 95.9089 4.90936C96.7052 5.52661 97.4771 6.17473 98.2617 6.80686C99.0156 7.41423 99.7729 8.01686 100.53 8.62036C100.6 8.67648 100.679 8.72173 100.751 8.77598C101.71 9.50098 101.657 9.62686 100.711 10.3454C99.8122 11.028 99.0418 11.877 98.1827 12.6152C97.5827 13.1307 96.9331 13.5892 96.2959 14.06C96.0118 14.2701 95.7389 14.2272 95.4634 13.9902C95.1922 13.7567 94.8715 13.5815 94.5937 13.355C94.1568 12.9989 94.1779 12.6924 94.6247 12.3652C95.1766 11.9612 95.7223 11.5487 96.2706 11.1397C96.2881 11.1624 96.3057 11.185 96.3233 11.2076Z" fill="#232744"/>
<path d="M111.206 11.5106C110.098 12.2881 109.001 13.0807 107.88 13.838C107.182 14.3089 106.887 14.2291 106.39 13.5494C106.273 13.389 106.158 13.2264 106.03 13.0759C105.578 12.5481 105.626 12.35 106.237 12.0272C107.177 11.5302 108.114 11.0259 109.038 10.4995C109.691 10.127 109.785 9.73474 109.242 9.21061C108.442 8.43886 107.556 7.75598 106.713 7.02786C106.4 6.75798 106.108 6.46511 105.803 6.18561C105.449 5.85998 105.118 5.50261 104.731 5.22124C104.055 4.72949 104.064 4.46636 104.739 3.99061C106.095 3.03523 107.427 2.04636 108.762 1.06211C108.918 0.947111 109.039 0.779732 109.163 0.626607C109.539 0.165357 109.786 0.149359 110.243 0.544234C110.46 0.731109 110.687 0.908482 110.926 1.06648C111.351 1.34798 111.398 1.61874 111.027 1.97986C110.822 2.17961 110.575 2.33748 110.342 2.50811C109.586 3.06323 108.813 3.59723 108.074 4.17448C107.498 4.62423 107.571 5.04298 108.159 5.45886C108.727 5.86123 109.267 6.31186 109.775 6.78899C110.72 7.67699 111.65 8.58223 112.551 9.51486C113.048 10.0294 112.949 10.3951 112.33 10.7624C111.943 10.992 111.57 11.2447 111.19 11.487C111.195 11.4949 111.201 11.5026 111.206 11.5106Z" fill="#232744"/>
<path d="M12.9109 0.769982C12.9441 0.930607 13.0023 1.08285 13.0023 1.23498C13.0014 2.65935 12.9782 4.08373 12.9867 5.50785C12.9939 6.73073 13.0408 7.95336 13.0562 9.17623C13.0611 9.56961 13.0453 9.96636 12.9953 10.3562C12.9378 10.8065 13.1136 11.0107 13.5558 10.9932C14.8492 10.9422 16.1428 10.8952 17.4354 10.8294C18.0169 10.7996 18.1893 10.954 18.1822 11.5245C18.1781 11.864 18.2173 12.2045 18.2418 12.5441C18.2788 13.0594 18.1332 13.1809 17.6343 13.1546C16.8436 13.1126 16.0502 13.0855 15.2584 13.0965C13.9811 13.1141 12.7033 13.1495 11.4278 13.2156C10.9564 13.2401 10.8671 12.994 10.8587 12.6304C10.8111 10.5252 10.7621 8.41985 10.7233 6.31435C10.6926 4.6401 10.6826 2.96561 10.6478 1.29161C10.6394 0.882981 10.7756 0.681728 11.2056 0.697978C11.6373 0.714228 12.0702 0.695607 12.5026 0.702232C12.6238 0.704107 12.7446 0.741232 12.9109 0.769982Z" fill="#232744"/>
</g>
<defs>
<clipPath id="clip0_2_27">
<rect width="137" height="15" fill="white"/>
</clipPath>
</defs>
</svg>
