<?xml version="1.0" encoding="UTF-8"?>
<!DOCTYPE svg PUBLIC "-//W3C//DTD SVG 1.1//EN" "http://www.w3.org/Graphics/SVG/1.1/DTD/svg11.dtd">
<!-- Creator: CorelDRAW -->
<svg xmlns="http://www.w3.org/2000/svg" xml:space="preserve" width="150mm" height="150mm" version="1.1" style="shape-rendering:geometricPrecision; text-rendering:geometricPrecision; image-rendering:optimizeQuality; fill-rule:evenodd; clip-rule:evenodd"
viewBox="0 0 15000 15000"
 xmlns:xlink="http://www.w3.org/1999/xlink"
 xmlns:xodm="http://www.corel.com/coreldraw/odm/2003">
 <defs>
  <style type="text/css">
   <![CDATA[
    .fil0 {fill:#232744;fill-rule:nonzero}
   ]]>
  </style>
 </defs>
 <g id="Layer_x0020_1">
  <metadata id="CorelCorpID_0Corel-Layer"/>
  <g id="_2322560306432">
   <path class="fil0" d="M2607.84 7342.94c-27.62,20.9 -55.43,41.56 -82.8,62.76 -43.49,33.66 -40.65,59.29 6.27,89.03 53.23,33.75 106.03,68.41 156.97,105.47 58.01,42.19 60.85,83.26 12.71,137.83 -11.38,12.9 -22.73,28.49 -37.57,35.36 -140.62,65.1 -258.74,174.56 -414.09,210.44 -43.25,9.99 -86.28,21.32 -129.97,28.84 -44.4,7.66 -73.63,-16.52 -74.27,-62.03 -2.04,-148.53 -2.58,-297.08 -3.47,-445.62 -0.72,-123.96 -0.3,-247.94 -2.18,-371.87 -0.57,-38.32 -12.48,-76.96 -9.48,-114.7 4.14,-52.27 30.02,-64.95 80.03,-52.42 160.65,40.25 309.22,107.89 450.04,194.1 28.15,17.25 60.69,27.83 87.32,46.9 48.23,34.57 48.14,61.85 4.17,100.33 -14.11,12.34 -29.5,23.22 -44.3,34.76 0.21,0.27 0.41,0.55 0.62,0.82zm-146.24 289.68l0 0c-6.41,-3.59 -16.96,-11.91 -28.93,-15.77 -45.07,-14.56 -90.26,-28.97 -136.08,-40.89 -39.14,-10.17 -51,1.35 -53.93,42.94 -2.82,39.95 -9.22,79.66 -10.81,119.63 -0.71,18.18 0.61,44.94 11.64,52.66 10.85,7.61 37.29,0.26 53.13,-7.87 51.8,-26.57 101.38,-57.43 152.81,-84.76 29.4,-15.64 36.89,-38.98 12.17,-65.94zm-80.87 -299.42l0 0c0.55,0.61 1.09,1.22 1.63,1.84 5.39,-4.77 10.74,-9.54 16.14,-14.27 40.96,-35.92 36.43,-52.01 -13.16,-75.53 -33.27,-15.77 -61.94,-40.94 -94.11,-59.42 -15.79,-9.07 -42.79,-22.57 -50.7,-16.32 -15.08,11.94 -27.38,36.46 -27.68,55.97 -0.46,29.38 10.06,58.99 16.5,88.37 5.31,24.24 -9.65,61.95 31.88,64.12 27.7,1.46 56.81,-5.92 83.68,-14.43 13.76,-4.35 24,-19.87 35.82,-30.33z"/>
   <path class="fil0" d="M7183.69 7458.11c-24.87,43.12 -43.63,87.32 -72.45,123.5 -110.35,138.65 -224.04,274.65 -336.27,411.81 -51.85,63.36 -101.54,59.1 -156.23,-2.28 -68.85,-77.27 -147.01,-146.2 -216.88,-222.66 -70.75,-77.43 -136.84,-159.14 -203.74,-240 -19.51,-23.58 -5.76,-45.59 10.09,-66.29 87.68,-114.4 173.65,-230.14 262.94,-343.27 45.12,-57.15 96,-109.77 144.27,-164.43 27,-30.62 52.58,-27.42 80.88,0.03 101.25,98.31 203.54,195.55 305.26,293.4 48.78,46.92 98.4,93.08 144.94,142.15 15.58,16.43 22.75,40.85 37.19,68.04zm-232.74 20.07l0 0c-7.4,-11.74 -13.89,-24.01 -22.26,-34.83 -11.44,-14.75 -24.18,-28.5 -36.59,-42.48 -61.14,-68.9 -121.71,-138.32 -183.82,-206.33 -22.99,-25.17 -48.14,-23.1 -69.71,4.3 -65.9,83.7 -131.2,167.86 -197.86,250.94 -23.36,29.11 -27.21,55.49 -1.56,84.9 68.26,78.27 135.4,157.52 204.03,235.47 31.23,35.46 70.14,34.84 99.43,-2.65 64.77,-82.92 127.93,-167.09 191.05,-251.27 7.47,-9.97 10.68,-23.13 17.29,-38.05z"/>
   <path class="fil0" d="M3789.04 7986.75c-4.23,-16.08 -13.95,-37.32 -14.79,-58.93 -3.13,-80.14 -3.19,-160.39 -4.7,-240.6 -0.58,-31.53 -1.43,-63.06 -3.1,-94.53 -8.38,-158.32 -17.15,-316.63 -25.5,-474.95 -0.92,-17.25 -0.94,-34.62 0.04,-51.86 1.78,-31.46 17.97,-46.31 50.62,-44.94 30.15,1.24 60.49,0.49 90.6,-1.48 33.07,-2.16 47.98,11.9 48.71,44.77 4.16,192.96 8.32,385.9 13.67,578.82 1.31,47.52 4.34,95.35 12.28,142.07 2.75,16.11 19.94,35.62 35.47,42.7 76.31,34.72 157.6,30.38 238.16,20.91 38.89,-4.58 50.53,-28.78 47.54,-87.39 -3.3,-64.78 -9.62,-129.47 -10.94,-194.27 -2.42,-120.95 -1.64,-241.95 -3.34,-362.91 -0.52,-35.94 -5.21,-71.8 -7.28,-107.74 -1.16,-20 -4.11,-40.7 -0.46,-59.99 5,-26.47 20.36,-58.2 50.63,-44.36 44.55,20.37 117.78,-35.63 135.36,44.8 11.21,51.31 8.13,106.06 8.75,159.29 1.73,148.39 2.58,296.79 2.65,445.19 0.02,51.88 -3.92,103.75 -4.79,155.65 -0.57,34.55 -1.21,69.39 2.18,103.7 7.81,79.44 -45.65,123.67 -125.13,115.27 -73.97,-7.81 -149.55,1.14 -224.26,-1.63 -91.95,-3.4 -183.74,-11.17 -275.56,-17.52 -8.42,-0.58 -16.6,-4.42 -36.81,-10.07z"/>
   <path class="fil0" d="M7478.22 7047c-1.3,-14.34 -3.27,-28.67 -3.75,-43.05 -0.92,-27.91 12.53,-40.69 40.99,-44.49 71.19,-9.53 126.03,23.87 177.46,64.93 170.12,135.82 339.32,272.79 509.18,408.92 27.61,22.14 28.49,43.77 4.95,69.25 -110.85,119.88 -230.97,229.26 -365.47,322.17 -91,62.86 -183,124.25 -274.45,186.46 -37.55,25.53 -55.89,18.96 -77.15,-22.57 -22.64,-44.22 -25.86,-89.14 -22.63,-138.23 4.81,-73.04 0.35,-146.63 1.79,-219.96 3.32,-170.04 7.87,-340.05 11.78,-510.07 0.55,-24.47 0.28,-48.97 0.39,-73.45 -1.03,0.03 -2.06,0.06 -3.09,0.09zm177.33 661.01l0 0c-10.17,27.58 3,38.6 28.06,25.92 17.61,-8.92 33.04,-22.69 48.35,-35.57 70.42,-59.33 139.94,-119.78 210.92,-178.44 29.5,-24.39 27.79,-54.25 -6.31,-76.5 -29.96,-19.55 -59.21,-40.25 -88.22,-61.21 -44.4,-32.1 -87.33,-66.38 -133.07,-96.41 -13.58,-8.91 -36.93,-12.74 -51.14,-7.11 -8.39,3.32 -10.54,29.81 -10.29,45.78 0.4,25.84 7.72,51.63 7.48,77.4 -0.95,102.05 -3.7,204.08 -5.78,306.14z"/>
   <path class="fil0" d="M5378.97 7532.66c-10.46,41.28 -31.81,62.11 -68.99,61.57 -64.66,-0.91 -129.29,-3.7 -193.94,-4.26 -12.91,-0.12 -25.87,6.15 -38.81,9.47 4.78,12.81 5.95,29.68 14.98,37.72 35.46,31.57 72.42,61.69 110.63,89.92 64.89,47.88 132.76,91.88 196.01,141.79 23.97,18.92 59.82,59.11 53.54,73.11 -17.71,39.45 -51.03,74.71 -85.74,102 -11.27,8.85 -50.61,-5.92 -69.07,-20.24 -111.37,-86.42 -219.96,-176.4 -330.48,-263.92 -43.83,-34.72 -91.72,-64.37 -135.04,-99.69 -32.12,-26.19 -61.73,-56.2 -88.2,-88.06 -6.95,-8.34 -3.49,-33.65 4.34,-44.74 140.71,-199.45 305.53,-378.74 471.79,-556.62 8.55,-9.13 32.35,-14.19 43.28,-8.99 33.51,15.92 64.72,37.03 95.9,57.52 37.31,24.53 36.53,38.39 5.3,69.18 -72.7,71.67 -143.69,145.06 -215.82,217.29 -21.31,21.33 -45.56,39.84 -65.67,62.16 -10.35,11.49 -14.56,28.52 -21.53,43.02 16.4,6.44 33.47,19.67 49.1,18.12 68.75,-6.82 137.09,-17.91 205.58,-27.43 64.32,-8.94 80.59,7.63 71.62,73.31 -2.93,21.44 -6.49,42.78 -8.78,57.77z"/>
   <path class="fil0" d="M11383.05 7606.21c-40.2,-43.29 -79.09,-87.87 -121.01,-129.41 -29.14,-28.86 -28.88,-55.98 -1.38,-82.15 66.81,-63.56 134.34,-126.4 203.02,-187.93 91.26,-81.76 185.07,-160.71 275.28,-243.6 29.15,-26.79 55.09,-34.73 88.33,-13.55 25.53,16.27 52.02,31.47 75.58,50.3 37.21,29.71 35.55,49.86 -1.4,78.61 -64.9,50.46 -130.28,100.37 -193.65,152.69 -42.19,34.85 -81.9,72.84 -121.24,110.96 -9.15,8.89 -12.22,24.02 -18.08,36.28 12.86,3.54 25.78,10.27 38.6,10.1 84.97,-1.15 169.97,-3.17 254.9,-6.19 34.53,-1.23 51.07,16.12 54.95,47.64 4.05,32.9 7.11,65.98 8.86,99.08 1.52,28.63 -12.43,42.02 -42.46,40.23 -87.52,-5.17 -175.08,-10.2 -262.7,-12.7 -18.22,-0.53 -36.76,10.08 -55.16,15.54 8.83,18.14 14.08,39.51 27.06,53.9 79.11,87.82 160.73,173.38 239.93,261.12 37.8,41.89 35.12,54.27 -8.91,91.18 -11.06,9.29 -21.89,18.91 -33.39,27.62 -40.17,30.37 -58.67,29.18 -91.14,-10.12 -64.25,-77.79 -126.47,-157.24 -191.01,-234.79 -42.34,-50.88 -87.27,-99.61 -131.02,-149.29 2.01,-1.84 4.02,-3.67 6.04,-5.52z"/>
   <path class="fil0" d="M8588.45 6961.78c8.51,5.61 29.18,11.71 35.95,24.91 59.79,116.67 116.63,234.82 175.7,351.85 8.58,17 24.29,30.41 36.7,45.49 14.79,-15.11 35.04,-27.67 43.42,-45.74 38.75,-83.52 74.16,-168.57 110.84,-253.05 14.32,-32.98 29.6,-65.58 42.99,-98.95 10.18,-25.37 26.37,-36.6 53.84,-30.41 35.14,7.94 70.4,15.41 105.66,22.77 27.93,5.87 30.06,23.27 20.47,45.53 -37.75,87.5 -75.27,175.09 -113.74,262.27 -45.99,104.24 -102.13,205.16 -136.22,313.09 -24.46,77.4 -21.74,163.83 -27.53,246.49 -2.6,37.08 4.61,74.77 5.63,112.23 0.91,33.04 -17.39,47.05 -49.66,43.87 -4.3,-0.42 -8.59,-1.06 -12.9,-1.59 -35.49,-4.4 -81.96,3.05 -103.25,-16.69 -19.76,-18.29 -15.4,-65.53 -16.69,-100.22 -2.45,-66.23 0.77,-132.7 -2.75,-198.85 -1.51,-28.55 -10.19,-58.24 -22.24,-84.38 -19.83,-43.05 -46.22,-83.04 -67.75,-125.37 -51.48,-101.23 -101.69,-203.07 -152.52,-304.61 -19.34,-38.65 -40.7,-76.44 -57.22,-116.24 -4.25,-10.26 2.21,-34.31 10.81,-38.97 35.32,-19.11 73.36,-33.17 120.46,-53.43z"/>
   <path class="fil0" d="M12605.92 7401.51c32.04,-76.81 66.98,-152.88 95.39,-231.32 20.05,-55.33 31.29,-113.85 46.4,-170.96 7.27,-27.52 26.73,-31.64 50.59,-25.73 37.61,9.29 75.1,19.01 112.53,29.02 44.74,11.96 55.52,35.82 36.39,77.32 -47.63,103.29 -94.13,207.13 -142.63,310.01 -25.71,54.54 -58.42,106 -81.31,161.59 -36.9,89.57 -39.9,184.61 -34.87,280.4 2.56,48.82 0.2,97.89 0.06,146.85 0,1.44 -0.09,2.89 -0.3,4.31 -5.47,36.62 -70.81,57.01 -146.95,46.27 -37.82,-5.34 -31.09,-31.43 -31.69,-58.59 -2.4,-108.12 -6.4,-216.24 -12.93,-324.2 -1.3,-21.68 -13.14,-44.49 -25.26,-63.49 -100.23,-157.04 -170.36,-329.65 -257.49,-493.44 -17.45,-32.8 -9.27,-55.17 25.66,-67.73 31.24,-11.22 62.29,-23.06 93.82,-33.4 25.84,-8.47 43.64,-0.32 55.19,26.15 32.68,74.92 67.73,148.82 100.52,223.72 21.21,48.46 39.44,98.21 60.42,146.79 5.22,12.06 14.01,24.98 24.79,31.21 5.26,3.03 18.88,-8.42 31.67,-14.78z"/>
   <path class="fil0" d="M9735.34 7829.32c38.43,-30.32 76.82,-60.71 115.35,-90.91 25.46,-19.95 25.9,-41.13 0.62,-60.27 -89.55,-67.88 -180.44,-134.03 -269.42,-202.63 -50.01,-38.58 -98.74,-79.14 -145.28,-121.8 -29.02,-26.6 -22.03,-68.83 18.14,-100.33 115.82,-90.77 227.84,-185.32 326.3,-295.27 24.29,-27.13 51.8,-27.06 78.33,1.28 16.66,17.8 35.66,33.5 54.48,49.13 42.97,35.63 42.6,70.01 -4.31,105.48 -44.86,33.95 -91.85,65.06 -136.98,98.65 -25.43,18.92 -49.29,40 -73.29,60.77 -20.93,18.12 -20.99,33.52 2.91,52.04 63.7,49.38 125.45,101.23 188.22,151.8 60.31,48.59 120.9,96.8 181.44,145.08 5.64,4.49 11.96,8.11 17.7,12.45 76.74,58 72.48,68.07 -3.18,125.55 -71.92,54.61 -133.55,122.53 -202.28,181.59 -48,41.24 -99.97,77.92 -150.94,115.58 -22.73,16.81 -44.56,13.38 -66.6,-5.58 -21.7,-18.68 -47.35,-32.7 -69.58,-50.82 -34.95,-28.49 -33.26,-53.01 2.48,-79.18 44.15,-32.32 87.81,-65.32 131.67,-98.04 1.4,1.81 2.81,3.62 4.22,5.43z"/>
   <path class="fil0" d="M10925.96 7853.56c-88.61,62.2 -176.4,125.61 -266.11,186.19 -55.78,37.67 -79.4,31.29 -119.18,-23.09 -9.37,-12.83 -18.53,-25.84 -28.83,-37.88 -36.1,-42.22 -32.29,-58.07 16.58,-83.89 75.21,-39.76 150.14,-80.11 224.06,-122.22 52.3,-29.8 59.79,-61.18 16.32,-103.11 -64,-61.74 -134.88,-116.37 -202.31,-174.62 -24.99,-21.59 -48.41,-45.02 -72.74,-67.38 -28.34,-26.05 -54.87,-54.64 -85.81,-77.15 -54.06,-39.34 -53.35,-60.39 0.68,-98.45 108.46,-76.43 215.02,-155.54 321.83,-234.28 12.49,-9.2 22.12,-22.59 32.09,-34.84 30.07,-36.9 49.82,-38.18 86.41,-6.59 17.31,14.95 35.52,29.14 54.58,41.78 33.99,22.52 37.79,44.18 8.09,73.07 -16.41,15.98 -36.15,28.61 -54.75,42.26 -60.51,44.41 -122.34,87.13 -181.46,133.31 -46.08,35.98 -40.27,69.48 6.76,102.75 45.47,32.19 88.7,68.24 129.32,106.41 75.58,71.04 150.01,143.46 222.07,218.07 39.75,41.16 31.84,70.42 -17.67,99.8 -30.97,18.37 -60.85,38.59 -91.22,57.97 0.43,0.63 0.85,1.25 1.29,1.89z"/>
   <path class="fil0" d="M3062.35 6994.31c2.65,12.85 7.31,25.03 7.31,37.2 -0.07,113.95 -1.93,227.9 -1.25,341.83 0.58,97.83 4.33,195.64 5.56,293.47 0.39,31.47 -0.87,63.21 -4.87,94.4 -4.6,36.02 9.46,52.36 44.84,50.96 103.47,-4.08 206.96,-7.84 310.37,-13.11 46.52,-2.38 60.31,9.97 59.74,55.61 -0.33,27.16 2.81,54.4 4.77,81.57 2.96,41.22 -8.69,50.94 -48.6,48.84 -63.26,-3.36 -126.73,-5.53 -190.07,-4.65 -102.19,1.41 -204.41,4.24 -306.45,9.53 -37.71,1.96 -44.86,-17.73 -45.53,-46.82 -3.81,-168.41 -7.73,-336.84 -10.83,-505.28 -2.46,-133.94 -3.26,-267.9 -6.04,-401.82 -0.67,-32.69 10.22,-48.79 44.62,-47.49 34.54,1.3 69.17,-0.19 103.76,0.34 9.7,0.15 19.36,3.12 32.67,5.42z"/>
  </g>
 </g>
</svg>
